<svg width="140" height="140" viewBox="0 0 140 140" fill="none" xmlns="http://www.w3.org/2000/svg">
<g clip-path="url(#clip0_1553_8366)">
<path fill-rule="evenodd" clip-rule="evenodd" d="M17.5 26.25H122.5C123.66 26.25 124.773 26.7109 125.594 27.5314C126.414 28.3519 126.875 29.4647 126.875 30.625V76.6735C125.278 75.2066 123.519 73.9127 121.626 72.8195C120.494 72.1662 119.325 71.5903 118.125 71.0939V40.5727L72.9586 81.9766C72.1514 82.7175 71.0957 83.1286 70 83.1286C68.9043 83.1286 67.8485 82.7175 67.0414 81.9766L21.875 40.5727V105H77.6995C78.3779 108.071 79.5414 111.026 81.1557 113.75H21.875C19.5544 113.75 17.3288 112.828 15.6878 111.187C14.0469 109.546 13.125 107.321 13.125 105V30.625C13.125 29.4647 13.5859 28.3519 14.4064 27.5314C15.2269 26.7109 16.3397 26.25 17.5 26.25ZM70 72.8164L111.251 35H28.7492L70 72.8164Z" fill="#F6F6F6"/>
<rect x="36.3399" y="12.772" width="25.9261" height="5.52754" transform="rotate(156 36.3399 12.772)" stroke="#76C96E"/>
<rect x="24.2532" y="12.9629" width="26.9261" height="6.52754" transform="rotate(156 24.2532 12.9629)" fill="#76C96E"/>
<path d="M56.1172 114C56.1172 114 55.9991 113.847 56 113.542C56.0007 113.319 56.1193 113.208 56.1193 113.208L80.2321 103C80.608 103.061 80.8877 103.218 81 103.542L80.9766 114H56.1172Z" fill="#76C96E"/>
<path d="M109 72C103.462 72 98.0486 73.6422 93.444 76.7189C88.8395 79.7955 85.2506 84.1685 83.1314 89.2849C81.0121 94.4012 80.4576 100.031 81.538 105.463C82.6184 110.894 85.2852 115.883 89.201 119.799C93.1169 123.715 98.106 126.382 103.537 127.462C108.969 128.542 114.599 127.988 119.715 125.869C124.831 123.749 129.204 120.161 132.281 115.556C135.358 110.951 137 105.538 137 100C136.992 92.5763 134.04 85.459 128.79 80.2097C123.541 74.9603 116.424 72.0078 109 72ZM119.139 107.092C119.339 107.292 119.498 107.529 119.606 107.791C119.715 108.052 119.77 108.332 119.77 108.615C119.77 108.898 119.715 109.179 119.606 109.44C119.498 109.702 119.339 109.939 119.139 110.139C118.939 110.339 118.702 110.498 118.44 110.606C118.179 110.715 117.898 110.77 117.615 110.77C117.332 110.77 117.052 110.715 116.791 110.606C116.529 110.498 116.292 110.339 116.092 110.139L109 103.045L101.908 110.139C101.708 110.339 101.471 110.498 101.209 110.606C100.948 110.715 100.668 110.77 100.385 110.77C100.102 110.77 99.8214 110.715 99.5599 110.606C99.2985 110.498 99.0609 110.339 98.8608 110.139C98.6607 109.939 98.5019 109.702 98.3936 109.44C98.2853 109.179 98.2296 108.898 98.2296 108.615C98.2296 108.332 98.2853 108.052 98.3936 107.791C98.5019 107.529 98.6607 107.292 98.8608 107.092L105.955 100L98.8608 92.9085C98.4566 92.5043 98.2296 91.9562 98.2296 91.3846C98.2296 90.8131 98.4566 90.2649 98.8608 89.8608C99.2649 89.4566 99.8131 89.2296 100.385 89.2296C100.956 89.2296 101.504 89.4566 101.908 89.8608L109 96.955L116.092 89.8608C116.292 89.6607 116.529 89.5019 116.791 89.3936C117.052 89.2853 117.332 89.2296 117.615 89.2296C117.898 89.2296 118.179 89.2853 118.44 89.3936C118.702 89.5019 118.939 89.6607 119.139 89.8608C119.339 90.0609 119.498 90.2985 119.606 90.5599C119.715 90.8214 119.77 91.1016 119.77 91.3846C119.77 91.6676 119.715 91.9478 119.606 92.2093C119.498 92.4708 119.339 92.7083 119.139 92.9085L112.045 100L119.139 107.092Z" fill="#E43637"/>
</g>
<defs>
<clipPath id="clip0_1553_8366">
<rect width="140" height="140" fill="white"/>
</clipPath>
</defs>
</svg>
