<svg width="140" height="140" viewBox="0 0 140 140" fill="none" xmlns="http://www.w3.org/2000/svg">
<g clip-path="url(#clip0_1553_8248)">
<path fill-rule="evenodd" clip-rule="evenodd" d="M17.5 26.25H122.5C123.66 26.25 124.773 26.7109 125.594 27.5314C126.414 28.3519 126.875 29.4647 126.875 30.625V76.6735C125.278 75.2066 123.519 73.9127 121.626 72.8195C120.494 72.1662 119.325 71.5903 118.125 71.0939V40.5727L72.9586 81.9766C72.1514 82.7175 71.0957 83.1286 70 83.1286C68.9043 83.1286 67.8485 82.7175 67.0414 81.9766L21.875 40.5727V105H77.6995C78.3779 108.071 79.5414 111.026 81.1557 113.75H21.875C19.5544 113.75 17.3288 112.828 15.6878 111.187C14.0469 109.546 13.125 107.321 13.125 105V30.625C13.125 29.4647 13.5859 28.3519 14.4064 27.5314C15.2269 26.7109 16.3397 26.25 17.5 26.25ZM70 72.8164L111.251 35H28.7492L70 72.8164Z" fill="#F6F6F6"/>
<rect x="36.3399" y="12.772" width="25.9261" height="5.52754" transform="rotate(156 36.3399 12.772)" stroke="#76C96E"/>
<rect x="24.2532" y="12.9629" width="26.9261" height="6.52754" transform="rotate(156 24.2532 12.9629)" fill="#76C96E"/>
<path d="M56.1172 114C56.1172 114 55.9991 113.847 56 113.542C56.0007 113.319 56.1193 113.208 56.1193 113.208L80.2321 103C80.608 103.061 80.8877 103.218 81 103.542L80.9766 114H56.1172Z" fill="#76C96E"/>
<path fill-rule="evenodd" clip-rule="evenodd" d="M108 127C111.677 127 115.318 126.276 118.715 124.869C122.112 123.461 125.199 121.399 127.799 118.799C130.399 116.199 132.461 113.112 133.869 109.715C135.276 106.318 136 102.677 136 99C136 95.323 135.276 91.682 133.869 88.2849C132.461 84.8877 130.399 81.8011 127.799 79.201C125.199 76.601 122.112 74.5385 118.715 73.1314C115.318 71.7242 111.677 71 108 71C100.574 71 93.452 73.95 88.201 79.201C82.95 84.452 80 91.5739 80 99C80 106.426 82.95 113.548 88.201 118.799C93.452 124.05 100.574 127 108 127ZM107.278 110.324L122.834 91.6578L118.055 87.6756L104.677 103.726L97.7551 96.8004L93.356 101.2L102.689 110.533L105.097 112.941L107.278 110.324Z" fill="#76C96E"/>
</g>
<defs>
<clipPath id="clip0_1553_8248">
<rect width="140" height="140" fill="white"/>
</clipPath>
</defs>
</svg>
