<svg width="158" height="50" viewBox="0 0 158 50" fill="none" xmlns="http://www.w3.org/2000/svg">
<g clip-path="url(#clip0_1552_8385)">
<path fill-rule="evenodd" clip-rule="evenodd" d="M86.871 0.00727225C87.0881 -0.0214397 87.2797 0.0348696 87.4457 0.176167C87.5279 16.5025 87.5553 32.8291 87.5279 49.1555C84.6267 49.1555 81.7255 49.1555 78.8244 49.1555C78.7969 33.8423 78.8244 18.5292 78.9064 3.21627C81.5814 2.1593 84.2361 1.08963 86.871 0.00727225Z" fill="#76C96E"/>
<path fill-rule="evenodd" clip-rule="evenodd" d="M0 6.25545C3.22961 6.25545 6.45921 6.25545 9.68882 6.25545C13.0373 15.9955 16.4037 25.735 19.7881 35.4742C23.2597 25.748 26.6809 16.0084 30.0518 6.25545C33.2833 6.19922 36.5129 6.25551 39.7406 6.42434C34.7159 20.605 29.7072 34.7922 24.7147 48.9858C23.0849 49.0973 21.4427 49.1536 19.7881 49.1547C18.1337 49.1536 16.4916 49.0973 14.8617 48.9858C9.90552 34.7387 4.95163 20.4953 0 6.25545Z" fill="#76C96E"/>
<path fill-rule="evenodd" clip-rule="evenodd" d="M59.9393 6.25547C60.3042 6.20108 60.6055 6.31368 60.8425 6.59326C60.9247 8.61921 60.952 10.6459 60.9247 12.6735C58.0234 12.6735 55.1224 12.6735 52.2211 12.6735C52.1702 11.6166 52.2251 10.5751 52.3854 9.54891C54.9369 8.4889 57.455 7.39108 59.9393 6.25547Z" fill="#76C96E"/>
<path fill-rule="evenodd" clip-rule="evenodd" d="M53.0421 15.7136C58.8892 15.0262 63.9525 16.7151 68.2323 20.7804C72.7499 26.2222 73.8995 32.3589 71.6808 39.19C68.5901 46.2998 63.2257 49.9031 55.5876 49.9992C49.9775 49.9745 45.3794 47.7789 41.7933 43.4123C38.0894 37.7261 37.4872 31.7022 39.9869 25.3406C42.7636 19.8661 47.1155 16.657 53.0421 15.7136ZM54.1917 23.9895C59.4911 23.6295 62.6933 26.1067 63.7984 31.4208C64.2761 35.7592 62.6614 38.9401 58.9541 40.9632C54.6747 42.4797 51.1987 41.3818 48.5262 37.6698C46.7628 34.0787 46.9271 30.5881 49.0189 27.1984C50.3895 25.4954 52.1139 24.4259 54.1917 23.9895Z" fill="#76C96E"/>
<path fill-rule="evenodd" clip-rule="evenodd" d="M141.063 15.7147C146.607 15.2507 151.862 16.2923 156.827 18.8392C155.887 21.1111 154.902 23.3629 153.872 25.595C151.853 24.7909 149.773 24.1153 147.631 23.5683C145.197 22.9573 142.789 23.0136 140.406 23.7372C138.451 25.1208 138.451 26.4719 140.406 27.7906C142.999 28.4694 145.627 28.9761 148.288 29.3106C156.396 31.0419 159.104 35.9117 156.417 43.92C154.674 46.6645 152.239 48.4379 149.109 49.2401C143.545 50.4703 138.071 50.1325 132.688 48.2269C131.296 47.709 130.037 46.9772 128.911 46.0312C129.999 43.764 131.148 41.5403 132.359 39.3598C136.822 42.2923 141.639 43.1648 146.81 41.9776C148.975 41.0314 149.304 39.6803 147.796 37.9242C147.467 37.7553 147.139 37.5864 146.81 37.4175C143.697 36.7672 140.577 36.1478 137.45 35.5597C131.047 33.3951 128.83 28.9759 130.799 22.3015C131.877 19.7861 133.656 18.0126 136.136 16.9814C137.756 16.3733 139.398 15.9511 141.063 15.7147Z" fill="#76C96E"/>
<path fill-rule="evenodd" clip-rule="evenodd" d="M95.5745 17.5723C98.3661 17.5723 101.158 17.5723 103.95 17.5723C103.875 23.9954 103.957 30.4134 104.196 36.8262C104.583 38.5188 105.623 39.4196 107.316 39.5285C109.583 39.0384 111.772 38.3065 113.885 37.3329C113.967 30.7462 113.994 24.1593 113.967 17.5723C116.813 17.5723 119.66 17.5723 122.506 17.5723C122.534 23.9341 122.506 30.2959 122.424 36.6573C114.818 39.921 107.209 43.1865 99.5978 46.4532C97.4696 45.3877 96.2105 43.6426 95.8208 41.2174C95.5812 33.3402 95.4992 25.4584 95.5745 17.5723Z" fill="#76C96E"/>
<path fill-rule="evenodd" clip-rule="evenodd" d="M121.192 40.2042C121.663 40.129 122.073 40.2417 122.424 40.542C122.506 43.4128 122.534 46.2839 122.506 49.1556C115.882 49.1839 109.259 49.1556 102.636 49.0712C102.417 48.7897 102.417 48.5083 102.636 48.2267C108.874 45.6369 115.059 42.9628 121.192 40.2042Z" fill="#262626"/>
</g>
<defs>
<clipPath id="clip0_1552_8385">
<rect width="158" height="50" fill="white"/>
</clipPath>
</defs>
</svg>
